<svg width="139" height="26" viewBox="0 0 139 26" fill="none" xmlns="http://www.w3.org/2000/svg">
  <path d="M22.0189 16C21.135 15.9995 20.2761 16.2933 19.5776 16.835L16.6889 14.585C16.907 14.085 17.0193 13.5454 17.0189 13C17.0189 12.9075 17.0189 12.815 17.0089 12.7237L18.6626 12.1725C19.1858 12.9794 19.9823 13.5708 20.906 13.8384C21.8297 14.106 22.8189 14.0318 23.6924 13.6294C24.5659 13.2271 25.2652 12.5235 25.6622 11.6476C26.0592 10.7716 26.1273 9.78199 25.8541 8.85991C25.5808 7.93784 24.9846 7.14508 24.1744 6.62683C23.3643 6.10858 22.3946 5.89955 21.4429 6.03803C20.4913 6.1765 19.6213 6.65321 18.9925 7.38084C18.3637 8.10846 18.018 9.03829 18.0189 9.99999C18.0189 10.0925 18.0189 10.185 18.0289 10.2762L16.3751 10.8275C16.0126 10.267 15.5156 9.8062 14.9294 9.487C14.3432 9.1678 13.6864 9.00038 13.0189 8.99999C12.7982 9.00045 12.5779 9.01884 12.3601 9.05499L11.5051 7.12499C12.2434 6.5351 12.749 5.70288 12.9323 4.77584C13.1156 3.84879 12.9647 2.88679 12.5065 2.06034C12.0483 1.23388 11.3122 0.596356 10.4288 0.26075C9.54543 -0.0748561 8.57175 -0.0868656 7.68035 0.22685C6.78895 0.540565 6.0374 1.15974 5.55892 1.97464C5.08043 2.78954 4.90591 3.74753 5.06627 4.67882C5.22664 5.6101 5.71155 6.45453 6.43505 7.06245C7.15854 7.67037 8.07391 8.0025 9.0189 7.99999C9.23961 7.99952 9.45991 7.98113 9.67764 7.94499L10.5326 9.86999C9.80759 10.4438 9.30436 11.2517 9.10897 12.1555C8.91357 13.0593 9.03815 14.0029 9.4614 14.825L6.24765 17.68C5.43887 17.1348 4.45901 16.9032 3.49173 17.0287C2.52445 17.1543 1.63616 17.6283 0.993355 18.3619C0.350553 19.0955 -0.00262788 20.0384 1.47228e-05 21.0138C0.00265733 21.9892 0.360942 22.9301 1.00771 23.6602C1.65448 24.3903 2.54533 24.8595 3.51327 24.9798C4.48122 25.1001 5.45981 24.8633 6.26562 24.3136C7.07142 23.764 7.64912 22.9394 7.89043 21.9943C8.13173 21.0493 8.02008 20.0486 7.5764 19.18L10.7901 16.325C11.486 16.7935 12.3118 17.0307 13.1502 17.0029C13.9886 16.9751 14.7969 16.6836 15.4601 16.17L18.3489 18.42C18.1315 18.9184 18.0191 19.4562 18.0189 20C18.0189 20.7911 18.2535 21.5645 18.693 22.2223C19.1325 22.8801 19.7573 23.3928 20.4882 23.6955C21.2191 23.9983 22.0233 24.0775 22.7993 23.9231C23.5752 23.7688 24.2879 23.3878 24.8473 22.8284C25.4067 22.269 25.7877 21.5563 25.942 20.7803C26.0964 20.0044 26.0172 19.2002 25.7144 18.4693C25.4117 17.7383 24.899 17.1136 24.2412 16.6741C23.5834 16.2346 22.81 16 22.0189 16ZM22.0189 7.99999C22.4145 7.99999 22.8011 8.11728 23.13 8.33705C23.4589 8.55681 23.7153 8.86917 23.8667 9.23462C24.018 9.60007 24.0576 10.0022 23.9805 10.3902C23.9033 10.7781 23.7128 11.1345 23.4331 11.4142C23.1534 11.6939 22.797 11.8844 22.4091 11.9616C22.0211 12.0387 21.619 11.9991 21.2535 11.8477C20.8881 11.6964 20.5757 11.44 20.356 11.1111C20.1362 10.7822 20.0189 10.3955 20.0189 9.99999C20.0189 9.46955 20.2296 8.96085 20.6047 8.58577C20.9798 8.2107 21.4885 7.99999 22.0189 7.99999ZM7.0189 3.99999C7.0189 3.60442 7.13619 3.21774 7.35596 2.88885C7.57572 2.55995 7.88808 2.3036 8.25353 2.15223C8.61898 2.00085 9.02111 1.96124 9.40908 2.03842C9.79704 2.11559 10.1534 2.30607 10.4331 2.58577C10.7128 2.86548 10.9033 3.22184 10.9805 3.60981C11.0576 3.99777 11.018 4.3999 10.8667 4.76535C10.7153 5.13081 10.4589 5.44316 10.13 5.66293C9.80114 5.88269 9.41446 5.99999 9.0189 5.99999C8.48846 5.99999 7.97976 5.78927 7.60468 5.4142C7.22961 5.03913 7.0189 4.53042 7.0189 3.99999ZM4.0189 23C3.62333 23 3.23665 22.8827 2.90776 22.6629C2.57886 22.4432 2.32251 22.1308 2.17114 21.7654C2.01976 21.3999 1.98015 20.9978 2.05732 20.6098C2.1345 20.2218 2.32498 19.8655 2.60468 19.5858C2.88439 19.3061 3.24075 19.1156 3.62872 19.0384C4.01668 18.9612 4.41881 19.0009 4.78426 19.1522C5.14971 19.3036 5.46207 19.5599 5.68183 19.8888C5.9016 20.2177 6.0189 20.6044 6.0189 21C6.0189 21.5304 5.80818 22.0391 5.43311 22.4142C5.05804 22.7893 4.54933 23 4.0189 23ZM11.0189 13C11.0189 12.6044 11.1362 12.2177 11.356 11.8888C11.5757 11.5599 11.8881 11.3036 12.2535 11.1522C12.619 11.0009 13.0211 10.9612 13.4091 11.0384C13.797 11.1156 14.1534 11.3061 14.4331 11.5858C14.7128 11.8655 14.9033 12.2218 14.9805 12.6098C15.0576 12.9978 15.018 13.3999 14.8667 13.7654C14.7153 14.1308 14.4589 14.4432 14.13 14.6629C13.8011 14.8827 13.4145 15 13.0189 15C12.4885 15 11.9798 14.7893 11.6047 14.4142C11.2296 14.0391 11.0189 13.5304 11.0189 13ZM22.0189 22C21.6233 22 21.2367 21.8827 20.9078 21.6629C20.5789 21.4432 20.3225 21.1308 20.1711 20.7654C20.0198 20.3999 19.9802 19.9978 20.0573 19.6098C20.1345 19.2218 20.325 18.8655 20.6047 18.5858C20.8844 18.3061 21.2408 18.1156 21.6287 18.0384C22.0167 17.9612 22.4188 18.0009 22.7843 18.1522C23.1497 18.3036 23.4621 18.5599 23.6818 18.8888C23.9016 19.2177 24.0189 19.6044 24.0189 20C24.0189 20.5304 23.8082 21.0391 23.4331 21.4142C23.058 21.7893 22.5493 22 22.0189 22Z" fill="#24CF7D"/>
  <path d="M39.28 8.02C40.6133 8.02 41.5933 8.51333 42.22 9.5C42.8467 10.4733 43.16 11.86 43.16 13.66C43.16 14.7533 42.9933 15.7333 42.66 16.6C42.34 17.4533 41.8733 18.1267 41.26 18.62C40.6467 19.1 39.92 19.34 39.08 19.34C38.0533 19.34 37.2133 18.9733 36.56 18.24V23.1L33.4 23.44V8.38H36.2L36.34 9.56C36.7533 9.04 37.2133 8.65333 37.72 8.4C38.24 8.14667 38.76 8.02 39.28 8.02ZM38.3 10.36C37.6333 10.36 37.0533 10.7733 36.56 11.6V16.08C36.7867 16.4 37.02 16.64 37.26 16.8C37.5133 16.9467 37.8 17.02 38.12 17.02C38.7067 17.02 39.1467 16.76 39.44 16.24C39.7467 15.7067 39.9 14.86 39.9 13.7C39.9 12.4467 39.7667 11.58 39.5 11.1C39.2333 10.6067 38.8333 10.36 38.3 10.36ZM48.5522 19H45.3922V4.16L48.5522 3.82V19ZM51.9722 13.08L55.7522 19H52.1522L48.6722 13.18L52.1722 8.38H55.4722L51.9722 13.08ZM67.5444 9C66.851 9.28 65.831 9.42 64.4844 9.42C65.1777 9.72667 65.691 10.0933 66.0244 10.52C66.371 10.9467 66.5444 11.4933 66.5444 12.16C66.5444 12.84 66.3577 13.4533 65.9844 14C65.611 14.5333 65.0844 14.9533 64.4044 15.26C63.7244 15.5667 62.9377 15.72 62.0444 15.72C61.6044 15.72 61.191 15.68 60.8044 15.6C60.6977 15.6533 60.611 15.74 60.5444 15.86C60.491 15.9667 60.4644 16.08 60.4644 16.2C60.4644 16.4 60.5377 16.56 60.6844 16.68C60.8444 16.7867 61.1577 16.84 61.6244 16.84H63.3844C64.1844 16.84 64.891 16.9733 65.5044 17.24C66.1177 17.5067 66.591 17.8733 66.9244 18.34C67.2577 18.8067 67.4244 19.3333 67.4244 19.92C67.4244 21.0267 66.9377 21.8867 65.9644 22.5C65.0044 23.1267 63.5977 23.44 61.7444 23.44C60.4244 23.44 59.3844 23.3 58.6244 23.02C57.8777 22.7533 57.351 22.3733 57.0444 21.88C56.751 21.3867 56.6044 20.7667 56.6044 20.02H59.4044C59.4044 20.3533 59.4644 20.6133 59.5844 20.8C59.7177 20.9867 59.9577 21.1267 60.3044 21.22C60.651 21.3133 61.1577 21.36 61.8244 21.36C62.7577 21.36 63.3977 21.2533 63.7444 21.04C64.1044 20.8267 64.2844 20.5267 64.2844 20.14C64.2844 19.82 64.151 19.56 63.8844 19.36C63.631 19.1733 63.251 19.08 62.7444 19.08H61.0644C59.971 19.08 59.151 18.8867 58.6044 18.5C58.0577 18.1 57.7844 17.5933 57.7844 16.98C57.7844 16.58 57.8844 16.2067 58.0844 15.86C58.2977 15.5 58.591 15.2 58.9644 14.96C58.2977 14.6 57.8177 14.18 57.5244 13.7C57.231 13.2067 57.0844 12.6133 57.0844 11.92C57.0844 11.1333 57.2844 10.4467 57.6844 9.86C58.0844 9.27333 58.6444 8.82667 59.3644 8.52C60.0844 8.2 60.9044 8.04 61.8244 8.04C62.891 8.06667 63.7977 7.96667 64.5444 7.74C65.291 7.5 66.051 7.14667 66.8244 6.68L67.5444 9ZM61.9044 10.1C61.3977 10.1 60.9977 10.26 60.7044 10.58C60.4244 10.9 60.2844 11.3333 60.2844 11.88C60.2844 12.4533 60.431 12.9 60.7244 13.22C61.0177 13.54 61.411 13.7 61.9044 13.7C62.4244 13.7 62.8244 13.5467 63.1044 13.24C63.3844 12.92 63.5244 12.4533 63.5244 11.84C63.5244 10.68 62.9844 10.1 61.9044 10.1ZM70.1366 11.52H77.8166V13.96H70.1366V11.52ZM91.5288 9C90.8354 9.28 89.8154 9.42 88.4688 9.42C89.1621 9.72667 89.6754 10.0933 90.0088 10.52C90.3554 10.9467 90.5287 11.4933 90.5287 12.16C90.5287 12.84 90.3421 13.4533 89.9688 14C89.5954 14.5333 89.0688 14.9533 88.3888 15.26C87.7088 15.5667 86.9221 15.72 86.0288 15.72C85.5888 15.72 85.1754 15.68 84.7888 15.6C84.6821 15.6533 84.5954 15.74 84.5288 15.86C84.4754 15.9667 84.4488 16.08 84.4488 16.2C84.4488 16.4 84.5221 16.56 84.6688 16.68C84.8288 16.7867 85.1421 16.84 85.6088 16.84H87.3688C88.1688 16.84 88.8754 16.9733 89.4888 17.24C90.1021 17.5067 90.5754 17.8733 90.9088 18.34C91.2421 18.8067 91.4088 19.3333 91.4088 19.92C91.4088 21.0267 90.9221 21.8867 89.9488 22.5C88.9888 23.1267 87.5821 23.44 85.7288 23.44C84.4088 23.44 83.3688 23.3 82.6087 23.02C81.8621 22.7533 81.3354 22.3733 81.0288 21.88C80.7354 21.3867 80.5888 20.7667 80.5888 20.02H83.3888C83.3888 20.3533 83.4488 20.6133 83.5688 20.8C83.7021 20.9867 83.9421 21.1267 84.2888 21.22C84.6354 21.3133 85.1421 21.36 85.8088 21.36C86.7421 21.36 87.3821 21.2533 87.7288 21.04C88.0888 20.8267 88.2688 20.5267 88.2688 20.14C88.2688 19.82 88.1354 19.56 87.8688 19.36C87.6154 19.1733 87.2354 19.08 86.7288 19.08H85.0488C83.9554 19.08 83.1354 18.8867 82.5888 18.5C82.0421 18.1 81.7688 17.5933 81.7688 16.98C81.7688 16.58 81.8688 16.2067 82.0688 15.86C82.2821 15.5 82.5754 15.2 82.9488 14.96C82.2821 14.6 81.8021 14.18 81.5088 13.7C81.2154 13.2067 81.0688 12.6133 81.0688 11.92C81.0688 11.1333 81.2688 10.4467 81.6688 9.86C82.0688 9.27333 82.6288 8.82667 83.3488 8.52C84.0688 8.2 84.8888 8.04 85.8088 8.04C86.8754 8.06667 87.7821 7.96667 88.5288 7.74C89.2754 7.5 90.0354 7.14667 90.8088 6.68L91.5288 9ZM85.8888 10.1C85.3821 10.1 84.9821 10.26 84.6888 10.58C84.4088 10.9 84.2688 11.3333 84.2688 11.88C84.2688 12.4533 84.4154 12.9 84.7088 13.22C85.0021 13.54 85.3954 13.7 85.8888 13.7C86.4088 13.7 86.8088 13.5467 87.0888 13.24C87.3688 12.92 87.5088 12.4533 87.5088 11.84C87.5088 10.68 86.9688 10.1 85.8888 10.1ZM101.461 8.06C102.101 8.06 102.688 8.16667 103.221 8.38L102.641 12.82H100.641V10.86C100.054 10.9667 99.5343 11.2867 99.0809 11.82C98.6276 12.3533 98.2743 13.0267 98.0209 13.84V16.88H100.121V19H93.4609V16.88H94.8609V10.48H93.4609V8.38H97.2809L97.8409 10.76C98.2276 9.85333 98.7143 9.18 99.3009 8.74C99.8876 8.28667 100.608 8.06 101.461 8.06ZM114.293 15.94C114.293 16.3267 114.346 16.6133 114.453 16.8C114.56 16.9867 114.74 17.1267 114.993 17.22L114.333 19.3C113.693 19.2333 113.16 19.0933 112.733 18.88C112.306 18.6533 111.973 18.3267 111.733 17.9C111.333 18.3667 110.826 18.7267 110.213 18.98C109.6 19.22 108.946 19.34 108.253 19.34C107.16 19.34 106.286 19.0333 105.633 18.42C104.98 17.7933 104.653 16.9867 104.653 16C104.653 14.8533 105.106 13.9667 106.013 13.34C106.92 12.7 108.193 12.38 109.833 12.38H111.253V12C111.253 10.9067 110.553 10.36 109.153 10.36C108.793 10.36 108.34 10.4133 107.793 10.52C107.26 10.6133 106.74 10.7467 106.233 10.92L105.513 8.82C106.193 8.56667 106.9 8.37333 107.633 8.24C108.38 8.09333 109.053 8.02 109.653 8.02C112.746 8.02 114.293 9.27333 114.293 11.78V15.94ZM109.333 17.08C109.693 17.08 110.053 16.98 110.413 16.78C110.786 16.5667 111.066 16.28 111.253 15.92V14.18H110.473C108.766 14.18 107.913 14.7133 107.913 15.78C107.913 16.1933 108.033 16.5133 108.273 16.74C108.526 16.9667 108.88 17.08 109.333 17.08ZM123.225 8.02C124.559 8.02 125.539 8.51333 126.165 9.5C126.792 10.4733 127.105 11.86 127.105 13.66C127.105 14.7533 126.939 15.7333 126.605 16.6C126.285 17.4533 125.819 18.1267 125.205 18.62C124.592 19.1 123.865 19.34 123.025 19.34C121.999 19.34 121.159 18.9733 120.505 18.24V23.1L117.345 23.44V8.38H120.145L120.285 9.56C120.699 9.04 121.159 8.65333 121.665 8.4C122.185 8.14667 122.705 8.02 123.225 8.02ZM122.245 10.36C121.579 10.36 120.999 10.7733 120.505 11.6V16.08C120.732 16.4 120.965 16.64 121.205 16.8C121.459 16.9467 121.745 17.02 122.065 17.02C122.652 17.02 123.092 16.76 123.385 16.24C123.692 15.7067 123.845 14.86 123.845 13.7C123.845 12.4467 123.712 11.58 123.445 11.1C123.179 10.6067 122.779 10.36 122.245 10.36ZM132.498 9.44C133.391 8.49333 134.431 8.02 135.618 8.02C136.551 8.02 137.271 8.3 137.778 8.86C138.284 9.40667 138.538 10.1867 138.538 11.2V19H135.378V12.08C135.378 11.44 135.304 10.9933 135.158 10.74C135.011 10.4867 134.744 10.36 134.358 10.36C134.038 10.36 133.724 10.4733 133.418 10.7C133.124 10.9133 132.818 11.2333 132.498 11.66V19H129.338V4.16L132.498 3.84V9.44Z" fill="#24CF7D"/>
  </svg>
  