<svg width="32" height="32" viewBox="0 0 32 32" fill="none" xmlns="http://www.w3.org/2000/svg">
<mask id="path-1-outside-1_1_2" maskUnits="userSpaceOnUse" x="1.9811" y="2.00001" width="29" height="28" fill="black">
<rect fill="white" x="1.9811" y="2.00001" width="29" height="28"/>
<path d="M25 19C24.1161 18.9995 23.2572 19.2933 22.5588 19.835L19.67 17.585C19.8881 17.0851 20.0004 16.5454 20 16C20 15.9075 20 15.815 19.99 15.7238L21.6437 15.1725C22.1669 15.9794 22.9634 16.5708 23.8871 16.8384C24.8108 17.106 25.8 17.0318 26.6735 16.6295C27.547 16.2271 28.2463 15.5235 28.6433 14.6476C29.0403 13.7716 29.1084 12.782 28.8352 11.8599C28.5619 10.9379 27.9657 10.1451 27.1555 9.62684C26.3454 9.1086 25.3757 8.89957 24.424 9.03804C23.4724 9.17652 22.6024 9.65323 21.9736 10.3809C21.3448 11.1085 20.9991 12.0383 21 13C21 13.0925 21 13.185 21.01 13.2762L19.3563 13.8275C18.9937 13.267 18.4967 12.8062 17.9105 12.487C17.3243 12.1678 16.6675 12.0004 16 12C15.7793 12.0005 15.559 12.0189 15.3412 12.055L14.4862 10.125C15.2245 9.53512 15.7301 8.7029 15.9134 7.77585C16.0967 6.84881 15.9458 5.8868 15.4876 5.06035C15.0294 4.2339 14.2933 3.59637 13.4099 3.26076C12.5265 2.92516 11.5529 2.91315 10.6615 3.22686C9.77005 3.54058 9.01851 4.15976 8.54002 4.97466C8.06153 5.78956 7.88701 6.74755 8.04738 7.67883C8.20775 8.61012 8.69265 9.45455 9.41615 10.0625C10.1396 10.6704 11.055 11.0025 12 11C12.2207 10.9995 12.441 10.9811 12.6587 10.945L13.5137 12.87C12.7887 13.4439 12.2855 14.2517 12.0901 15.1555C11.8947 16.0593 12.0192 17.0029 12.4425 17.825L9.22875 20.68C8.41998 20.1348 7.44012 19.9032 6.47284 20.0288C5.50556 20.1543 4.61726 20.6283 3.97446 21.3619C3.33166 22.0955 2.97848 23.0384 2.98112 24.0138C2.98376 24.9892 3.34205 25.9301 3.98881 26.6602C4.63558 27.3904 5.52643 27.8595 6.49438 27.9798C7.46233 28.1001 8.44092 27.8633 9.24672 27.3137C10.0525 26.764 10.6302 25.9394 10.8715 24.9944C11.1128 24.0493 11.0012 23.0486 10.5575 22.18L13.7712 19.325C14.4671 19.7935 15.2929 20.0307 16.1313 20.0029C16.9697 19.9751 17.778 19.6836 18.4412 19.17L21.33 21.42C21.1126 21.9184 21.0003 22.4563 21 23C21 23.7911 21.2346 24.5645 21.6741 25.2223C22.1136 25.8801 22.7384 26.3928 23.4693 26.6955C24.2002 26.9983 25.0044 27.0775 25.7804 26.9231C26.5563 26.7688 27.269 26.3878 27.8284 25.8284C28.3878 25.269 28.7688 24.5563 28.9231 23.7804C29.0775 23.0044 28.9983 22.2002 28.6955 21.4693C28.3928 20.7384 27.8801 20.1136 27.2223 19.6741C26.5645 19.2346 25.7911 19 25 19ZM25 11C25.3956 11 25.7822 11.1173 26.1111 11.3371C26.44 11.5568 26.6964 11.8692 26.8478 12.2346C26.9991 12.6001 27.0387 13.0022 26.9616 13.3902C26.8844 13.7781 26.6939 14.1345 26.4142 14.4142C26.1345 14.6939 25.7781 14.8844 25.3902 14.9616C25.0022 15.0387 24.6001 14.9991 24.2346 14.8478C23.8692 14.6964 23.5568 14.44 23.3371 14.1111C23.1173 13.7822 23 13.3956 23 13C23 12.4696 23.2107 11.9609 23.5858 11.5858C23.9609 11.2107 24.4696 11 25 11ZM10 7C10 6.60444 10.1173 6.21776 10.3371 5.88886C10.5568 5.55996 10.8692 5.30362 11.2346 5.15224C11.6001 5.00087 12.0022 4.96126 12.3902 5.03843C12.7781 5.1156 13.1345 5.30608 13.4142 5.58579C13.6939 5.86549 13.8844 6.22186 13.9616 6.60982C14.0387 6.99778 13.9991 7.39992 13.8478 7.76537C13.6964 8.13082 13.44 8.44318 13.1111 8.66294C12.7822 8.8827 12.3956 9 12 9C11.4696 9 10.9609 8.78929 10.5858 8.41421C10.2107 8.03914 10 7.53043 10 7ZM7 26C6.60444 26 6.21776 25.8827 5.88886 25.6629C5.55996 25.4432 5.30362 25.1308 5.15224 24.7654C5.00087 24.3999 4.96126 23.9978 5.03843 23.6098C5.1156 23.2219 5.30608 22.8655 5.58579 22.5858C5.86549 22.3061 6.22186 22.1156 6.60982 22.0384C6.99778 21.9613 7.39991 22.0009 7.76537 22.1522C8.13082 22.3036 8.44318 22.56 8.66294 22.8889C8.8827 23.2178 9 23.6044 9 24C9 24.5304 8.78929 25.0391 8.41421 25.4142C8.03914 25.7893 7.53043 26 7 26ZM14 16C14 15.6044 14.1173 15.2178 14.3371 14.8889C14.5568 14.56 14.8692 14.3036 15.2346 14.1522C15.6001 14.0009 16.0022 13.9613 16.3902 14.0384C16.7781 14.1156 17.1345 14.3061 17.4142 14.5858C17.6939 14.8655 17.8844 15.2219 17.9616 15.6098C18.0387 15.9978 17.9991 16.3999 17.8478 16.7654C17.6964 17.1308 17.44 17.4432 17.1111 17.6629C16.7822 17.8827 16.3956 18 16 18C15.4696 18 14.9609 17.7893 14.5858 17.4142C14.2107 17.0391 14 16.5304 14 16ZM25 25C24.6044 25 24.2178 24.8827 23.8889 24.6629C23.56 24.4432 23.3036 24.1308 23.1522 23.7654C23.0009 23.3999 22.9613 22.9978 23.0384 22.6098C23.1156 22.2219 23.3061 21.8655 23.5858 21.5858C23.8655 21.3061 24.2219 21.1156 24.6098 21.0384C24.9978 20.9613 25.3999 21.0009 25.7654 21.1522C26.1308 21.3036 26.4432 21.56 26.6629 21.8889C26.8827 22.2178 27 22.6044 27 23C27 23.5304 26.7893 24.0391 26.4142 24.4142C26.0391 24.7893 25.5304 25 25 25Z"/>
</mask>
<path d="M25 19C24.1161 18.9995 23.2572 19.2933 22.5588 19.835L19.67 17.585C19.8881 17.0851 20.0004 16.5454 20 16C20 15.9075 20 15.815 19.99 15.7238L21.6437 15.1725C22.1669 15.9794 22.9634 16.5708 23.8871 16.8384C24.8108 17.106 25.8 17.0318 26.6735 16.6295C27.547 16.2271 28.2463 15.5235 28.6433 14.6476C29.0403 13.7716 29.1084 12.782 28.8352 11.8599C28.5619 10.9379 27.9657 10.1451 27.1555 9.62684C26.3454 9.1086 25.3757 8.89957 24.424 9.03804C23.4724 9.17652 22.6024 9.65323 21.9736 10.3809C21.3448 11.1085 20.9991 12.0383 21 13C21 13.0925 21 13.185 21.01 13.2762L19.3563 13.8275C18.9937 13.267 18.4967 12.8062 17.9105 12.487C17.3243 12.1678 16.6675 12.0004 16 12C15.7793 12.0005 15.559 12.0189 15.3412 12.055L14.4862 10.125C15.2245 9.53512 15.7301 8.7029 15.9134 7.77585C16.0967 6.84881 15.9458 5.8868 15.4876 5.06035C15.0294 4.2339 14.2933 3.59637 13.4099 3.26076C12.5265 2.92516 11.5529 2.91315 10.6615 3.22686C9.77005 3.54058 9.01851 4.15976 8.54002 4.97466C8.06153 5.78956 7.88701 6.74755 8.04738 7.67883C8.20775 8.61012 8.69265 9.45455 9.41615 10.0625C10.1396 10.6704 11.055 11.0025 12 11C12.2207 10.9995 12.441 10.9811 12.6587 10.945L13.5137 12.87C12.7887 13.4439 12.2855 14.2517 12.0901 15.1555C11.8947 16.0593 12.0192 17.0029 12.4425 17.825L9.22875 20.68C8.41998 20.1348 7.44012 19.9032 6.47284 20.0288C5.50556 20.1543 4.61726 20.6283 3.97446 21.3619C3.33166 22.0955 2.97848 23.0384 2.98112 24.0138C2.98376 24.9892 3.34205 25.9301 3.98881 26.6602C4.63558 27.3904 5.52643 27.8595 6.49438 27.9798C7.46233 28.1001 8.44092 27.8633 9.24672 27.3137C10.0525 26.764 10.6302 25.9394 10.8715 24.9944C11.1128 24.0493 11.0012 23.0486 10.5575 22.18L13.7712 19.325C14.4671 19.7935 15.2929 20.0307 16.1313 20.0029C16.9697 19.9751 17.778 19.6836 18.4412 19.17L21.33 21.42C21.1126 21.9184 21.0003 22.4563 21 23C21 23.7911 21.2346 24.5645 21.6741 25.2223C22.1136 25.8801 22.7384 26.3928 23.4693 26.6955C24.2002 26.9983 25.0044 27.0775 25.7804 26.9231C26.5563 26.7688 27.269 26.3878 27.8284 25.8284C28.3878 25.269 28.7688 24.5563 28.9231 23.7804C29.0775 23.0044 28.9983 22.2002 28.6955 21.4693C28.3928 20.7384 27.8801 20.1136 27.2223 19.6741C26.5645 19.2346 25.7911 19 25 19ZM25 11C25.3956 11 25.7822 11.1173 26.1111 11.3371C26.44 11.5568 26.6964 11.8692 26.8478 12.2346C26.9991 12.6001 27.0387 13.0022 26.9616 13.3902C26.8844 13.7781 26.6939 14.1345 26.4142 14.4142C26.1345 14.6939 25.7781 14.8844 25.3902 14.9616C25.0022 15.0387 24.6001 14.9991 24.2346 14.8478C23.8692 14.6964 23.5568 14.44 23.3371 14.1111C23.1173 13.7822 23 13.3956 23 13C23 12.4696 23.2107 11.9609 23.5858 11.5858C23.9609 11.2107 24.4696 11 25 11ZM10 7C10 6.60444 10.1173 6.21776 10.3371 5.88886C10.5568 5.55996 10.8692 5.30362 11.2346 5.15224C11.6001 5.00087 12.0022 4.96126 12.3902 5.03843C12.7781 5.1156 13.1345 5.30608 13.4142 5.58579C13.6939 5.86549 13.8844 6.22186 13.9616 6.60982C14.0387 6.99778 13.9991 7.39992 13.8478 7.76537C13.6964 8.13082 13.44 8.44318 13.1111 8.66294C12.7822 8.8827 12.3956 9 12 9C11.4696 9 10.9609 8.78929 10.5858 8.41421C10.2107 8.03914 10 7.53043 10 7ZM7 26C6.60444 26 6.21776 25.8827 5.88886 25.6629C5.55996 25.4432 5.30362 25.1308 5.15224 24.7654C5.00087 24.3999 4.96126 23.9978 5.03843 23.6098C5.1156 23.2219 5.30608 22.8655 5.58579 22.5858C5.86549 22.3061 6.22186 22.1156 6.60982 22.0384C6.99778 21.9613 7.39991 22.0009 7.76537 22.1522C8.13082 22.3036 8.44318 22.56 8.66294 22.8889C8.8827 23.2178 9 23.6044 9 24C9 24.5304 8.78929 25.0391 8.41421 25.4142C8.03914 25.7893 7.53043 26 7 26ZM14 16C14 15.6044 14.1173 15.2178 14.3371 14.8889C14.5568 14.56 14.8692 14.3036 15.2346 14.1522C15.6001 14.0009 16.0022 13.9613 16.3902 14.0384C16.7781 14.1156 17.1345 14.3061 17.4142 14.5858C17.6939 14.8655 17.8844 15.2219 17.9616 15.6098C18.0387 15.9978 17.9991 16.3999 17.8478 16.7654C17.6964 17.1308 17.44 17.4432 17.1111 17.6629C16.7822 17.8827 16.3956 18 16 18C15.4696 18 14.9609 17.7893 14.5858 17.4142C14.2107 17.0391 14 16.5304 14 16ZM25 25C24.6044 25 24.2178 24.8827 23.8889 24.6629C23.56 24.4432 23.3036 24.1308 23.1522 23.7654C23.0009 23.3999 22.9613 22.9978 23.0384 22.6098C23.1156 22.2219 23.3061 21.8655 23.5858 21.5858C23.8655 21.3061 24.2219 21.1156 24.6098 21.0384C24.9978 20.9613 25.3999 21.0009 25.7654 21.1522C26.1308 21.3036 26.4432 21.56 26.6629 21.8889C26.8827 22.2178 27 22.6044 27 23C27 23.5304 26.7893 24.0391 26.4142 24.4142C26.0391 24.7893 25.5304 25 25 25Z" fill="#24CF7D"/>
<path d="M25 19C24.1161 18.9995 23.2572 19.2933 22.5588 19.835L19.67 17.585C19.8881 17.0851 20.0004 16.5454 20 16C20 15.9075 20 15.815 19.99 15.7238L21.6437 15.1725C22.1669 15.9794 22.9634 16.5708 23.8871 16.8384C24.8108 17.106 25.8 17.0318 26.6735 16.6295C27.547 16.2271 28.2463 15.5235 28.6433 14.6476C29.0403 13.7716 29.1084 12.782 28.8352 11.8599C28.5619 10.9379 27.9657 10.1451 27.1555 9.62684C26.3454 9.1086 25.3757 8.89957 24.424 9.03804C23.4724 9.17652 22.6024 9.65323 21.9736 10.3809C21.3448 11.1085 20.9991 12.0383 21 13C21 13.0925 21 13.185 21.01 13.2762L19.3563 13.8275C18.9937 13.267 18.4967 12.8062 17.9105 12.487C17.3243 12.1678 16.6675 12.0004 16 12C15.7793 12.0005 15.559 12.0189 15.3412 12.055L14.4862 10.125C15.2245 9.53512 15.7301 8.7029 15.9134 7.77585C16.0967 6.84881 15.9458 5.8868 15.4876 5.06035C15.0294 4.2339 14.2933 3.59637 13.4099 3.26076C12.5265 2.92516 11.5529 2.91315 10.6615 3.22686C9.77005 3.54058 9.01851 4.15976 8.54002 4.97466C8.06153 5.78956 7.88701 6.74755 8.04738 7.67883C8.20775 8.61012 8.69265 9.45455 9.41615 10.0625C10.1396 10.6704 11.055 11.0025 12 11C12.2207 10.9995 12.441 10.9811 12.6587 10.945L13.5137 12.87C12.7887 13.4439 12.2855 14.2517 12.0901 15.1555C11.8947 16.0593 12.0192 17.0029 12.4425 17.825L9.22875 20.68C8.41998 20.1348 7.44012 19.9032 6.47284 20.0288C5.50556 20.1543 4.61726 20.6283 3.97446 21.3619C3.33166 22.0955 2.97848 23.0384 2.98112 24.0138C2.98376 24.9892 3.34205 25.9301 3.98881 26.6602C4.63558 27.3904 5.52643 27.8595 6.49438 27.9798C7.46233 28.1001 8.44092 27.8633 9.24672 27.3137C10.0525 26.764 10.6302 25.9394 10.8715 24.9944C11.1128 24.0493 11.0012 23.0486 10.5575 22.18L13.7712 19.325C14.4671 19.7935 15.2929 20.0307 16.1313 20.0029C16.9697 19.9751 17.778 19.6836 18.4412 19.17L21.33 21.42C21.1126 21.9184 21.0003 22.4563 21 23C21 23.7911 21.2346 24.5645 21.6741 25.2223C22.1136 25.8801 22.7384 26.3928 23.4693 26.6955C24.2002 26.9983 25.0044 27.0775 25.7804 26.9231C26.5563 26.7688 27.269 26.3878 27.8284 25.8284C28.3878 25.269 28.7688 24.5563 28.9231 23.7804C29.0775 23.0044 28.9983 22.2002 28.6955 21.4693C28.3928 20.7384 27.8801 20.1136 27.2223 19.6741C26.5645 19.2346 25.7911 19 25 19ZM25 11C25.3956 11 25.7822 11.1173 26.1111 11.3371C26.44 11.5568 26.6964 11.8692 26.8478 12.2346C26.9991 12.6001 27.0387 13.0022 26.9616 13.3902C26.8844 13.7781 26.6939 14.1345 26.4142 14.4142C26.1345 14.6939 25.7781 14.8844 25.3902 14.9616C25.0022 15.0387 24.6001 14.9991 24.2346 14.8478C23.8692 14.6964 23.5568 14.44 23.3371 14.1111C23.1173 13.7822 23 13.3956 23 13C23 12.4696 23.2107 11.9609 23.5858 11.5858C23.9609 11.2107 24.4696 11 25 11ZM10 7C10 6.60444 10.1173 6.21776 10.3371 5.88886C10.5568 5.55996 10.8692 5.30362 11.2346 5.15224C11.6001 5.00087 12.0022 4.96126 12.3902 5.03843C12.7781 5.1156 13.1345 5.30608 13.4142 5.58579C13.6939 5.86549 13.8844 6.22186 13.9616 6.60982C14.0387 6.99778 13.9991 7.39992 13.8478 7.76537C13.6964 8.13082 13.44 8.44318 13.1111 8.66294C12.7822 8.8827 12.3956 9 12 9C11.4696 9 10.9609 8.78929 10.5858 8.41421C10.2107 8.03914 10 7.53043 10 7ZM7 26C6.60444 26 6.21776 25.8827 5.88886 25.6629C5.55996 25.4432 5.30362 25.1308 5.15224 24.7654C5.00087 24.3999 4.96126 23.9978 5.03843 23.6098C5.1156 23.2219 5.30608 22.8655 5.58579 22.5858C5.86549 22.3061 6.22186 22.1156 6.60982 22.0384C6.99778 21.9613 7.39991 22.0009 7.76537 22.1522C8.13082 22.3036 8.44318 22.56 8.66294 22.8889C8.8827 23.2178 9 23.6044 9 24C9 24.5304 8.78929 25.0391 8.41421 25.4142C8.03914 25.7893 7.53043 26 7 26ZM14 16C14 15.6044 14.1173 15.2178 14.3371 14.8889C14.5568 14.56 14.8692 14.3036 15.2346 14.1522C15.6001 14.0009 16.0022 13.9613 16.3902 14.0384C16.7781 14.1156 17.1345 14.3061 17.4142 14.5858C17.6939 14.8655 17.8844 15.2219 17.9616 15.6098C18.0387 15.9978 17.9991 16.3999 17.8478 16.7654C17.6964 17.1308 17.44 17.4432 17.1111 17.6629C16.7822 17.8827 16.3956 18 16 18C15.4696 18 14.9609 17.7893 14.5858 17.4142C14.2107 17.0391 14 16.5304 14 16ZM25 25C24.6044 25 24.2178 24.8827 23.8889 24.6629C23.56 24.4432 23.3036 24.1308 23.1522 23.7654C23.0009 23.3999 22.9613 22.9978 23.0384 22.6098C23.1156 22.2219 23.3061 21.8655 23.5858 21.5858C23.8655 21.3061 24.2219 21.1156 24.6098 21.0384C24.9978 20.9613 25.3999 21.0009 25.7654 21.1522C26.1308 21.3036 26.4432 21.56 26.6629 21.8889C26.8827 22.2178 27 22.6044 27 23C27 23.5304 26.7893 24.0391 26.4142 24.4142C26.0391 24.7893 25.5304 25 25 25Z" stroke="#B0E4BF" stroke-width="2" mask="url(#path-1-outside-1_1_2)"/>
</svg>
